<svg width="256" height="256" viewBox="0 0 256 256" xmlns="http://www.w3.org/2000/svg">
    <!-- Background -->
    <rect width="256" height="256" fill="#1e1e2e"/>

    <!-- First die (showing 5) - left side -->
    <g transform="translate(38, 88)">
        <rect x="0" y="0" width="80" height="80" rx="8"
              fill="#f5e0dc" stroke="#cba6f7" stroke-width="3"
              transform="rotate(-12 40 40)"/>
        <!-- Pips for 5 -->
        <circle cx="16" cy="16" r="6" fill="#1e1e2e" transform="rotate(-12 40 40)"/>
        <circle cx="64" cy="16" r="6" fill="#1e1e2e" transform="rotate(-12 40 40)"/>
        <circle cx="40" cy="40" r="6" fill="#1e1e2e" transform="rotate(-12 40 40)"/>
        <circle cx="16" cy="64" r="6" fill="#1e1e2e" transform="rotate(-12 40 40)"/>
        <circle cx="64" cy="64" r="6" fill="#1e1e2e" transform="rotate(-12 40 40)"/>
    </g>

    <!-- Second die (showing 3) - right side -->
    <g transform="translate(138, 88)">
        <rect x="0" y="0" width="80" height="80" rx="8"
              fill="#f5e0dc" stroke="#cba6f7" stroke-width="3"
              transform="rotate(12 40 40)"/>
        <!-- Pips for 3 -->
        <circle cx="16" cy="16" r="6" fill="#1e1e2e" transform="rotate(12 40 40)"/>
        <circle cx="40" cy="40" r="6" fill="#1e1e2e" transform="rotate(12 40 40)"/>
        <circle cx="64" cy="64" r="6" fill="#1e1e2e" transform="rotate(12 40 40)"/>
    </g>
</svg>
